<svg xmlns="http://www.w3.org/2000/svg" viewBox="0 0 40 40" fill="none">
  <circle cx="20" cy="20" r="20" fill="#2CA01C"/>
  <path d="M14.5 12C12.015 12 10 14.015 10 16.5v7C10 25.985 12.015 28 14.5 28H16v-2.5h-1.5c-1.38 0-2.5-1.12-2.5-2.5v-7c0-1.38 1.12-2.5 2.5-2.5H18v12.5c0 1.38 1.12 2.5 2.5 2.5V12h-6z" fill="white"/>
  <path d="M25.5 28c2.485 0 4.5-2.015 4.5-4.5v-7C30 14.015 27.985 12 25.5 12H24v2.5h1.5c1.38 0 2.5 1.12 2.5 2.5v7c0 1.38-1.12 2.5-2.5 2.5H22V14.5c0-1.38-1.12-2.5-2.5-2.5V28h6z" fill="white"/>
</svg>