<svg viewBox="0 0 96 96" fill="none" xmlns="http://www.w3.org/2000/svg">
	<title>CRV Logo</title>
	<path style="transition:all 800ms ease" d="M47.802 0c1.19.01 2.322.019 3.454.038.424.01.84.066 1.236.226.207.084.443.094.66.122.793.094 1.585.17 2.378.283.481.065.944.169 1.425.244.188.038.387.047.585.085.736.17 1.462.349 2.198.537.321.085.632.179.934.33.236.112.52.131.793.188.104.019.207.028.311.056.812.264 1.633.528 2.444.82.698.244 1.378.517 2.066.79.208.085.415.189.623.273a47.47 47.47 0 013.642 1.714c.425.226.868.405 1.293.64.18.104.34.245.51.368.216.15.443.31.67.452.528.32 1.066.621 1.594.941.33.207.632.471.953.678.443.283.811.678 1.283.914a.835.835 0 01.32.244c.152.226.378.34.595.471.18.113.34.245.5.377.198.16.416.301.614.461.141.113.283.226.396.358.18.226.368.424.642.556.179.094.349.244.462.414.113.15.245.254.377.377.293.282.642.499.84.866.038.066.095.113.151.16.32.226.585.508.821.829.057.084.132.169.207.235.236.216.435.461.652.687.519.528.934 1.14 1.443 1.667.33.348.604.753.897 1.13.34.442.679.876 1.019 1.318.283.367.575.735.84 1.111.17.245.254.546.462.772.113.123.207.264.302.396.075.094.15.188.207.292.49.875.963 1.77 1.482 2.636.51.838.868 1.752 1.302 2.627.207.415.396.848.585 1.271.236.537.453 1.083.679 1.62.236.584.481 1.168.698 1.76.18.51.321 1.037.481 1.554.066.227.142.462.199.688.236.885.48 1.77.688 2.665.18.772.312 1.563.463 2.344l.226 1.243c.038.188.066.386.095.584.103.998.226 2.006.302 3.013.075.914.15 1.827.179 2.75a27.661 27.661 0 01-.076 3.427c-.075.791-.103 1.591-.198 2.382-.15 1.328-.311 2.665-.585 3.974a92.954 92.954 0 01-.726 3.21c-.246.98-.52 1.95-.86 2.901-.084.235-.112.499-.207.734a65.048 65.048 0 01-.679 1.724c-.245.612-.5 1.224-.745 1.836-.01.01-.01.028-.02.037a213.53 213.53 0 01-1.462 2.957 40.377 40.377 0 01-.82 1.554c-.255.442-.538.875-.803 1.308-.094.151-.188.311-.292.453-.378.555-.764 1.12-1.151 1.676l-1.16 1.666c-.322.452-.68.885-1.058 1.29-.236.254-.443.528-.66.8-.406.528-.868.999-1.312 1.498a25.83 25.83 0 01-1.406 1.469c-.245.245-.518.452-.773.687-.274.254-.566.5-.812.782-.311.357-.688.63-1.047.932-.18.16-.359.32-.547.48-.057.047-.104.122-.16.15-.491.274-.888.679-1.322 1.018-.415.32-.858.612-1.264.941-.141.113-.302.188-.453.292-.434.301-.859.603-1.293.904-.122.085-.264.141-.386.226-.312.207-.614.443-.934.63-.387.236-.784.444-1.18.66-.038.019-.085.038-.123.056l-1.528.876c-.104.057-.198.15-.312.18-.452.121-.849.376-1.283.555-.292.122-.566.273-.858.414-.16.075-.33.16-.491.226a9.127 9.127 0 00-.811.386c-.35.198-.755.301-1.133.443l-.424.14c-.255.086-.52.16-.774.246l-.944.31c-.084.029-.16.085-.245.104-.868.245-1.745.49-2.613.725a40.657 40.657 0 01-2.944.687c-1.085.208-2.161.415-3.256.537-.377.038-.754.066-1.122.104-2.152.197-4.303.292-6.464.207-1.896-.075-3.793-.236-5.67-.546-.906-.151-1.812-.311-2.718-.471-.849-.15-1.67-.386-2.51-.603-1.01-.263-2-.574-2.962-.97-.208-.084-.434-.113-.651-.188a57.204 57.204 0 01-1.774-.669 72.578 72.578 0 01-1.784-.772c-.424-.197-.84-.414-1.254-.621-.18-.085-.368-.141-.538-.226-.557-.292-1.114-.593-1.67-.895-.463-.254-.925-.508-1.387-.753-.038-.019-.085-.037-.123-.066-.85-.621-1.812-1.073-2.623-1.76-.236-.208-.519-.349-.783-.528-.302-.207-.595-.414-.887-.621-.123-.085-.236-.189-.368-.255-.727-.414-1.34-.96-1.916-1.572-.15-.16-.31-.33-.48-.48-.312-.283-.633-.556-.944-.838-.16-.142-.302-.292-.453-.434-.047-.037-.076-.094-.123-.131-.453-.349-.811-.8-1.226-1.187a10.1 10.1 0 01-1.114-1.177c-.32-.405-.68-.762-1-1.158-.377-.47-.764-.932-1.132-1.403-.368-.47-.727-.96-1.085-1.44a.849.849 0 01-.104-.151c-.283-.528-.689-.989-1.029-1.479-.15-.225-.273-.47-.415-.696a2.652 2.652 0 00-.226-.34c-.18-.225-.35-.451-.453-.724-.047-.123-.151-.226-.217-.34-.359-.63-.717-1.252-1.066-1.883-.359-.65-.66-1.318-.991-1.977-.255-.508-.519-1.017-.727-1.554-.396-1.026-.877-2.015-1.17-3.079-.283-.584-.405-1.224-.603-1.845-.114-.33-.199-.66-.293-.989-.16-.565-.32-1.13-.453-1.695-.16-.659-.311-1.318-.453-1.977a44.698 44.698 0 01-.622-4.02c-.35-3.259-.321-6.526-.114-9.794.048-.687.16-1.374.246-2.062.075-.565.15-1.13.245-1.695.151-.904.302-1.808.538-2.702.217-.829.396-1.667.632-2.495.236-.838.472-1.676.811-2.486.246-.593.434-1.215.69-1.817.5-1.206 1.028-2.402 1.575-3.597.33-.716.698-1.403 1.113-2.063.189-.31.34-.64.529-.95.387-.64.792-1.272 1.189-1.912.085-.141.132-.301.217-.443.32-.49.632-.988 1.019-1.43.217-.246.386-.538.566-.82a3.3 3.3 0 01.528-.669c.189-.169.368-.357.51-.565.207-.32.471-.593.717-.866.028-.038.066-.056.094-.103.283-.49.736-.829 1.114-1.243.264-.292.5-.603.745-.904.349-.433.717-.848 1.17-1.177.245-.18.434-.415.66-.612.217-.189.444-.358.66-.546.208-.18.397-.368.605-.537.358-.302.717-.593 1.075-.895.548-.452 1.076-.923 1.633-1.346.632-.48 1.236-1.017 1.972-1.356.056-.028.113-.057.15-.094.218-.32.567-.433.878-.622.047-.028.123-.037.16-.075.482-.452 1.086-.697 1.661-.998.812-.433 1.604-.885 2.425-1.3.717-.357 1.397-.781 2.142-1.064.255-.094.481-.244.726-.367.085-.037.16-.085.246-.113.434-.17.868-.339 1.311-.499.123-.047.255-.085.387-.122.076-.02.151-.038.217-.066.66-.358 1.368-.537 2.095-.706a5.86 5.86 0 00.896-.292c.481-.198.972-.311 1.472-.424.538-.122 1.076-.282 1.614-.424.67-.179 1.349-.339 2.047-.367.123-.01.245-.01.359-.038.849-.226 1.726-.282 2.594-.348a4.19 4.19 0 001.067-.207c.33-.123.67-.16 1.019-.17A98.83 98.83 0 0147.802 0zM67.23 50.056c-.245-.122-.359-.348-.472-.556-.141-.263-.273-.536-.5-.743-.085-.076-.132-.198-.189-.311-.15-.273-.292-.565-.453-.829-.386-.63-.783-1.252-1.17-1.874-.113-.178-.188-.386-.32-.536-.16-.18-.246-.377-.34-.584-.132-.264-.113-.556-.066-.838a.54.54 0 01.32-.414c.274-.114.53-.274.85-.264.283.01.576-.028.859-.066.264-.038.349-.113.358-.377.019-.433.019-.875 0-1.309-.01-.216-.094-.291-.311-.31-.132-.01-.274-.01-.406-.01-3.199 0-6.397-.01-9.596-.01h-.32c-.284.02-.35.076-.36.35-.009.404 0 .81 0 1.214v.047c.03.282.105.367.388.414.179.029.358.047.537.057.614.01 1.152.254 1.595.65.293.254.538.565.774.875.311.424.594.867.868 1.319.396.678.83 1.327 1.245 1.986.359.575.708 1.159 1.076 1.724.377.583.66 1.214 1.132 1.732a.205.205 0 01.047.075c.17.452.472.838.717 1.253.434.706.869 1.403 1.303 2.109a.725.725 0 00.462.33c.283.075.547.16.83 0 .047-.029.123-.02.18-.02.188.01.31-.093.405-.244.18-.292.378-.584.557-.876.368-.603.727-1.205 1.094-1.817.425-.706.84-1.422 1.293-2.119.604-.932 1.16-1.902 1.755-2.844.481-.781.897-1.6 1.434-2.344.18-.245.33-.5.538-.725.387-.433.812-.791 1.406-.942.32-.084.642-.179.972-.188.34-.01.481-.207.585-.47.028-.067.028-.151.028-.227 0-.254.01-.508 0-.772-.019-.405-.18-.574-.585-.584-.349-.01-.698.02-1.038.02-1.962 0-3.925-.01-5.878-.01-.104 0-.208 0-.311.019-.114.018-.199.075-.217.197-.057.509-.085 1.017-.02 1.535.029.198.095.245.303.273.283.028.575.075.858.057.368-.02.68.131.981.282.321.16.453.537.34.885-.094.32-.255.612-.434.895-.264.414-.528.838-.783 1.262-.255.423-.51.856-.764 1.28-.397.66-.802 1.309-1.208 1.959-.104.15-.16.32-.35.414zM44.406 43.71c-.02-.038-.048-.076-.057-.123a8.956 8.956 0 01-.038-1.667 3.4 3.4 0 00.01-.536c-.01-.255-.076-.33-.312-.349-.207-.01-.424-.01-.632-.01a1025.7 1025.7 0 00-5.388-.018c-.103 0-.207 0-.31.01-.209.028-.303.112-.303.32-.01.47-.01.932 0 1.403 0 .188.085.263.283.291.208.029.425.048.632.048.359-.01.68.103 1.01.226.255.094.444.263.585.48.151.235.302.49.33.781.038.33.104.66.104.99.01 1.656 0 3.314.01 4.97 0 .415-.057.81-.16 1.206-.18.687-.614 1.12-1.34 1.224-.303.038-.605.066-.897.094-.33.029-.387.076-.396.415-.01.357-.01.725-.01 1.082v.095c.029.357.085.423.425.433h.32c2.765 0 5.52.01 8.285.01.18 0 .358 0 .538-.02.302-.028.396-.131.405-.433.01-.348.01-.697 0-1.036-.009-.517-.047-.546-.585-.565-.301-.018-.603-.009-.896-.075-.472-.104-.877-.367-1.066-.829-.151-.376-.274-.781-.302-1.177-.066-1.11-.123-2.222.094-3.333.057-.292.057-.602.142-.885.188-.603.49-1.158.877-1.667l.113-.14c.397-.377.812-.707 1.303-.961.5-.255 1.019-.255 1.538-.311.16-.019.245.094.245.254 0 .236 0 .48-.01.716-.009.65.699 1.375 1.34 1.45.35.047.69.066 1.038.019.444-.057.85-.217 1.142-.575a.862.862 0 01.16-.16c.387-.282.52-.697.548-1.139.018-.405 0-.81-.02-1.215a1.51 1.51 0 00-.094-.395 2.919 2.919 0 00-.934-1.3c-.472-.367-.972-.64-1.585-.696-.019 0-.028 0-.047-.01a3.487 3.487 0 00-1.397-.037c-.471.075-.943.122-1.396.33a6.666 6.666 0 00-2.085 1.477c-.33.349-.642.716-.906 1.12-.066.114-.142.236-.311.218zm-14.352-.528c-.179.33-.349.593-.471.885-.19.424-.246.867 0 1.3.047.094.084.198.113.292.094.32.292.536.556.744.312.244.66.367 1.038.414.538.066 1.066 0 1.52-.32.34-.236.632-.518.83-.923.283-.575.34-1.14.188-1.752a3.663 3.663 0 00-.783-1.459c-.207-.245-.434-.452-.726-.593a3.23 3.23 0 01-.434-.245c-.49-.348-1.038-.537-1.623-.65-.104-.019-.217-.028-.302-.084-.16-.113-.34-.123-.519-.123-.17-.01-.33-.01-.5-.038-.642-.094-1.293-.14-1.944-.066-.65.076-1.33.048-1.953.32-.01.01-.028.01-.047.01-.368.123-.764.217-1.113.386-.482.236-.991.443-1.397.82a.205.205 0 01-.075.046c-.302.123-.52.368-.736.594-.208.216-.406.442-.604.668-.095.113-.208.226-.274.358-.368.669-.783 1.318-.953 2.081-.122.556-.283 1.111-.264 1.685.01.33.01.66 0 .99-.028.78.198 1.515.472 2.24.33.895.858 1.686 1.528 2.373.274.282.576.527.878.772.283.236.622.367.924.565.652.433 1.406.584 2.123.857.463.056.925.15 1.387.17.802.028 1.604.037 2.388-.114.179-.037.368-.018.537-.084.576-.226 1.18-.386 1.699-.716.15-.094.292-.207.453-.301.358-.198.679-.452.943-.763.529-.612.934-1.29 1.17-2.062.029-.085.057-.179.104-.245.113-.16.104-.339.094-.518-.01-.179-.075-.235-.254-.254-.123-.01-.246-.019-.359-.019l-1.01.028c-.075.16-.141.311-.226.452-.189.33-.358.669-.585.96-.359.472-.811.839-1.35 1.112-.395.198-.782.348-1.235.367-.69.028-1.35-.085-2.01-.264a1.451 1.451 0 01-.33-.14c-.623-.387-1.16-.867-1.548-1.489a5.908 5.908 0 01-.792-1.958 11.087 11.087 0 01-.208-1.563c-.047-1.026.066-2.034.453-3.004.217-.536.51-1.017.887-1.46.142-.169.32-.32.51-.442.405-.264.868-.405 1.311-.584a.391.391 0 01.18-.019c.452.057.896.057 1.349.151.434.057.735.292.99.612z" fill="#ee5235"></path>
</svg>