<svg height="100%" width="100%" fill="currentColor" xmlns="http://www.w3.org/2000/svg" viewBox="0 0 300 92.3529071">

<path d="M103.1192438,92.2688085c-4.6122756-17.990895-9.2278566-35.9946707-13.9174744-54.2872456-4.6225498,18.2794281-9.1715274,36.2679356-13.7321197,54.3023693H29.0012528C19.35254,61.6573539,9.703831,31.0307946,0,.2292699.5471237.1505823.9712395.0365983,1.3954411.036279c12.6022982-.0094894,25.2046507.0065734,37.8068281-.0335427,1.0631981-.0033846,1.4508459.4224833,1.6938512,1.3417845,2.68334,10.151208,5.3849397,20.2976095,8.0880818,30.4435891,2.1858442,8.2043415,4.3803404,16.4063829,6.5724642,24.6090555.0527039.1972167.1225975.3898559.4276022.6330369.3686226-1.4314386.7563922-2.858277,1.1027451-4.2950609,2.1064038-8.7382986,4.2024953-17.4790761,6.3037201-26.2186141,2.0058094-8.3426848,4.0294483-16.6811629,6.0010307-25.0318962C69.6422905.4235335,70.056968-.0008479,71.2146942.002799c12.9349125.04075,25.8700078.0343297,38.8050041.0092451,1.0240853-.0019865,1.5822362.2457054,1.8436155,1.3391014,2.582064,10.8015014,5.2223612,21.5891081,7.8261769,32.3854533,1.8246969,7.565868,3.617543,15.139393,5.4292163,22.7084013.0628639.2626768.1750957.5135754.3696888,1.0726969.6128274-2.3492713,1.1636744-4.413762,1.6894185-6.4846056,2.2505017-8.8644361,4.4960833-17.730123,6.7386337-26.5965703,1.9444993-7.6879546,3.8944212-15.3745881,5.8081207-23.0701911.2379596-.95691.644206-1.372223,1.6906524-1.359369,4.2417033.0520995,8.4844576.0215317,12.7268159.0215298,20.2513164-.0000124,40.5026786.0128293,60.7539036-.0284796,1.3699812-.0027944,1.9461901.5118998,2.4153613,1.7368195,2.0980565,5.4773507,4.306395,10.9125361,6.4666908,16.3661984,2.3276382,5.8761837,4.6478431,11.7553081,6.9680784,17.634425,2.1100748,5.3466462,4.2126095,10.6962617,6.3248168,16.0420716,1.1052584,2.797265,2.2241497,5.5891466,3.4328662,8.6244905,1.0064462-2.6755681,1.937858-5.1345682,2.8568858-7.5981799,2.2248809-5.964145,4.4471875-11.9292328,6.664498-17.8961874,2.4313857-6.5431615,4.8525048-13.0901135,7.284713-19.6329632,1.7564408-4.7250472,3.5272914-9.4447661,5.2824528-14.1702791.280732-.7557536.7634752-1.0890781,1.5953741-1.0879337,11.5209175.0158518,23.0418349.009228,34.5627524.0165874.3557665.0002272.711472.0918591,1.2495696.1660112-.7590274,1.9803084-1.4576128,3.8135445-2.1639059,5.6438152-2.559185,6.631943-5.1138917,13.2656264-7.6837698,19.8934264-2.3018499,5.9363611-4.6310875,11.862138-6.9306831,17.7993621-2.5218962,6.5112793-5.013602,13.0342378-7.5375394,19.5447301-2.1201586,5.4690085-4.2724574,10.925585-6.4015117,16.3911642-1.5430967,3.9613202-3.115866,7.9122309-4.5717119,11.9054561-.3200619.877921-.7651508.9749288-1.534658.9733776-8.9422046-.0179903-17.8844397-.0114892-26.8266595-.0114892-7.1932733.0000076-14.3865466,0-21.6408559,0-12.4693133-29.8797828-24.9286646-59.7356481-37.5242539-89.9179861-.7351431,2.2335832-1.3871328,4.1622978-2.0051392,6.1018125-2.0730297,6.5058636-4.1359756,13.0149321-6.1989216,19.523993-2.43626,7.6869643-4.8617965,15.3773121-7.3044999,23.0622272-2.027744,6.3793554-4.0724263,12.7533464-6.1118383,19.1289874-2.2648658,7.080487-4.5466852,14.1556515-6.7740032,21.2478786-.1991323.634109-.4052106.8658464-1.0701022.8650784-14.7234707-.0169182-29.4469414-.0139604-44.1704274-.0174657-.1213713-.0000304-.2427273-.0365357-.4302755-.0666311Z"/>
</svg>